<mxfile host="app.diagrams.net" agent="Mozilla/5.0 (Windows NT 10.0; Win64; x64) AppleWebKit/537.36 (KHTML, like Gecko) Chrome/137.0.0.0 Safari/537.36 Edg/137.0.0.0" version="27.1.6">
  <diagram name="Страница — 1" id="80ZzkPSk8fIDhHWi6Pz-">
    <mxGraphModel dx="1418" dy="794" grid="1" gridSize="10" guides="1" tooltips="1" connect="1" arrows="1" fold="1" page="1" pageScale="1" pageWidth="827" pageHeight="1169" math="0" shadow="0">
      <root>
        <mxCell id="0" />
        <mxCell id="1" parent="0" />
        <mxCell id="q1OO117UDixRcyhFrAjQ-1" value="пользоватиель" style="shape=umlActor;verticalLabelPosition=bottom;verticalAlign=top;html=1;outlineConnect=0;" vertex="1" parent="1">
          <mxGeometry x="399" y="585" width="30" height="60" as="geometry" />
        </mxCell>
        <mxCell id="q1OO117UDixRcyhFrAjQ-2" value="" style="endArrow=classic;html=1;rounded=0;" edge="1" parent="1">
          <mxGeometry width="50" height="50" relative="1" as="geometry">
            <mxPoint x="440" y="620" as="sourcePoint" />
            <mxPoint x="530" y="640" as="targetPoint" />
          </mxGeometry>
        </mxCell>
        <mxCell id="q1OO117UDixRcyhFrAjQ-3" value="добавить расходы" style="ellipse;whiteSpace=wrap;html=1;" vertex="1" parent="1">
          <mxGeometry x="540" y="610" width="120" height="80" as="geometry" />
        </mxCell>
        <mxCell id="q1OO117UDixRcyhFrAjQ-4" value="" style="endArrow=classic;html=1;rounded=0;" edge="1" parent="1" source="q1OO117UDixRcyhFrAjQ-1">
          <mxGeometry width="50" height="50" relative="1" as="geometry">
            <mxPoint x="310" y="630" as="sourcePoint" />
            <mxPoint x="310" y="610" as="targetPoint" />
          </mxGeometry>
        </mxCell>
        <mxCell id="q1OO117UDixRcyhFrAjQ-5" value="изменить расходы" style="ellipse;whiteSpace=wrap;html=1;" vertex="1" parent="1">
          <mxGeometry x="180" y="565" width="120" height="80" as="geometry" />
        </mxCell>
        <mxCell id="q1OO117UDixRcyhFrAjQ-6" value="удалить расходы" style="ellipse;whiteSpace=wrap;html=1;" vertex="1" parent="1">
          <mxGeometry x="330" y="740" width="120" height="80" as="geometry" />
        </mxCell>
        <mxCell id="q1OO117UDixRcyhFrAjQ-7" value="" style="endArrow=classic;html=1;rounded=0;entryX=0.65;entryY=0;entryDx=0;entryDy=0;entryPerimeter=0;" edge="1" parent="1" target="q1OO117UDixRcyhFrAjQ-6">
          <mxGeometry width="50" height="50" relative="1" as="geometry">
            <mxPoint x="410" y="670" as="sourcePoint" />
            <mxPoint x="450" y="680" as="targetPoint" />
          </mxGeometry>
        </mxCell>
        <mxCell id="q1OO117UDixRcyhFrAjQ-8" value="вывести расходы" style="ellipse;whiteSpace=wrap;html=1;" vertex="1" parent="1">
          <mxGeometry x="380" y="410" width="120" height="80" as="geometry" />
        </mxCell>
        <mxCell id="q1OO117UDixRcyhFrAjQ-9" value="" style="endArrow=classic;html=1;rounded=0;" edge="1" parent="1">
          <mxGeometry width="50" height="50" relative="1" as="geometry">
            <mxPoint x="410" y="580" as="sourcePoint" />
            <mxPoint x="430" y="500" as="targetPoint" />
          </mxGeometry>
        </mxCell>
        <mxCell id="q1OO117UDixRcyhFrAjQ-10" value="Система" style="shape=umlActor;verticalLabelPosition=bottom;verticalAlign=top;html=1;outlineConnect=0;" vertex="1" parent="1">
          <mxGeometry x="720" y="430" width="30" height="60" as="geometry" />
        </mxCell>
        <mxCell id="q1OO117UDixRcyhFrAjQ-11" value="" style="endArrow=classic;html=1;rounded=0;" edge="1" parent="1" source="q1OO117UDixRcyhFrAjQ-10" target="q1OO117UDixRcyhFrAjQ-12">
          <mxGeometry width="50" height="50" relative="1" as="geometry">
            <mxPoint x="620" y="470" as="sourcePoint" />
            <mxPoint x="610" y="440" as="targetPoint" />
          </mxGeometry>
        </mxCell>
        <mxCell id="q1OO117UDixRcyhFrAjQ-12" value="сортировка данных" style="ellipse;whiteSpace=wrap;html=1;" vertex="1" parent="1">
          <mxGeometry x="510" y="350" width="120" height="80" as="geometry" />
        </mxCell>
        <mxCell id="q1OO117UDixRcyhFrAjQ-13" value="" style="endArrow=classic;html=1;rounded=0;" edge="1" parent="1" source="q1OO117UDixRcyhFrAjQ-12" target="q1OO117UDixRcyhFrAjQ-8">
          <mxGeometry width="50" height="50" relative="1" as="geometry">
            <mxPoint x="470" y="350" as="sourcePoint" />
            <mxPoint x="520" y="300" as="targetPoint" />
          </mxGeometry>
        </mxCell>
      </root>
    </mxGraphModel>
  </diagram>
</mxfile>
